<svg width="500" height="500" viewBox="0 0 500 500" xmlns="http://www.w3.org/2000/svg"><title>Artboard 1</title><desc>Created with Sketch.</desc><g transform="translate(32 9)" fill="#fff"><circle id="Oval-1" cx="25.207" cy="287.73" r="25"/><circle cx="410.805" cy="287.73" r="25"/><path d="M116.528 303.175h11.668l2.87-11.31 54.628-215.17-29.327-1.177 57.108 336.035L228.677 501l14.396-89.58 37.755-234.926-29.182 1.913 34.448 115.313 3.222 10.784 11.255-.078 110.34-.77 15-.104-.21-30-15 .105-110.338.77 14.477 10.706-34.45-115.313-18.774-62.847-10.408 64.76-37.755 234.927 29.598-.133L185.944 70.49 174.063.59l-17.446 68.723-54.627 215.17 14.538-11.308h-81.32v30h81.32z"/></g></svg>